# xmcd
#
# Track frame offsets:
#	150
#	22525
#	47931
#	63096
#	81745
#	103988
#	115534
#	132161
#	150828
#	159839
#	174203
#	186202
#	203351
#	219824
#	231977
#	247190
#	266358
#	282027
#	313045
#
# Disc length: 4307 seconds
#
# Revision: 0
# Processed by: cddbd v1.5.2PL0 Copyright (c) Steve Scherf et al.
# Submitted via: EasyCDDAExtractor 10.0.5.1
#
DISCID=ee10d113
DTITLE=Serjik - Best of Serjik
DYEAR=2007
DGENRE=Power Ballad
TTITLE0=Bi Gharar
TTITLE1=Chadori
TTITLE2=Dooset Daram
TTITLE3=Tannaz
TTITLE4=Lajbaz
TTITLE5=Eshve
TTITLE6=Bolhavas
TTITLE7=Bot Parast
TTITLE8=Viroon Beshi
TTITLE9=Asemooneh Abi
TTITLE10=Cheshmayeh Toh
TTITLE11=Layla
TTITLE12=Shab
TTITLE13=Namak
TTITLE14=Ghoncheha
TTITLE15=Raz
TTITLE16=Mayrik
TTITLE17=Hayrik
TTITLE18=Greetings -ji
EXTD=
EXTT0=
EXTT1=
EXTT2=
EXTT3=
EXTT4=
EXTT5=
EXTT6=
EXTT7=
EXTT8=
EXTT9=
EXTT10=
EXTT11=
EXTT12=
EXTT13=
EXTT14=
EXTT15=
EXTT16=
EXTT17=
EXTT18=
PLAYORDER=
